{"asset":{"generator":"FBX2glTF v0.9.7","version":"2.0"},"scene":0,"buffers":[{"byteLength":21696,"uri":"data:application/octet-stream;base64,"}],"bufferViews":[{"buffer":0,"byteLength":5760,"byteOffset":0,"target":34963},{"buffer":0,"byteLength":5976,"byteOffset":5760,"target":34962},{"buffer":0,"byteLength":5976,"byteOffset":11736,"target":34962},{"buffer":0,"byteLength":3984,"byteOffset":17712,"target":34962}],"scenes":[{"name":"Root Scene","nodes":[0]}],"accessors":[{"componentType":5123,"type":"SCALAR","count":2880,"bufferView":0,"byteOffset":0},{"componentType":5126,"type":"VEC3","count":498,"bufferView":1,"byteOffset":0,"min":[-18.3954772949219,-25.0464401245117,-18.5082130432129],"max":[17.5009670257568,23.9326686859131,17.5009670257568]},{"componentType":5126,"type":"VEC3","count":498,"bufferView":2,"byteOffset":0},{"componentType":5126,"type":"VEC2","count":498,"bufferView":3,"byteOffset":0}],"images":[{"name":"Map #114","uri":"data:image/png;base64,"}],"samplers":[{}],"textures":[{"name":"Map #114","sampler":0,"source":0}],"materials":[{"name":"Material #334","alphaMode":"OPAQUE","extras":{"fromFBX":{"shadingModel":"Phong","isTruePBR":false}},"pbrMetallicRoughness":{"baseColorTexture":{"index":0,"texCoord":0},"baseColorFactor":[1,1,1,1],"metallicFactor":0.400000005960464,"roughnessFactor":0.70710676908493}}],"meshes":[{"name":"ghost04","primitives":[{"material":0,"mode":4,"attributes":{"NORMAL":2,"POSITION":1,"TEXCOORD_0":3},"indices":0}]}],"nodes":[{"name":"RootNode","translation":[0,0,0],"rotation":[0,0,0,1],"scale":[1,1,1],"children":[1,2,3,4]},{"name":"Particle View 01","translation":[50.4817047119141,0.0000364318839274347,-50.2338066101074],"rotation":[0.707106828689575,0,0,0.707106709480286],"scale":[2.53999996185303,2.53999996185303,2.53999996185303]},{"name":"ghost04","translation":[-0.612787127494812,2.28021454811096,1.04169762134552],"rotation":[-0.502664983272552,-0.448440402746201,-0.497436553239822,0.546613216400146],"scale":[0.807252585887909,0.807252645492554,0.807252526283264],"mesh":0},{"name":"Wind","translation":[119.198417663574,-0.0253315512090921,91.8693161010742],"rotation":[0.948323607444763,-1.89191062816008e-9,-0.317304730415344,-5.65432323185178e-9],"scale":[2.53999996185303,2.53999996185303,2.53999996185303]},{"name":"Omni02","translation":[-101.425086975098,0,176.324508666992],"rotation":[-0.70710676908493,0,0,0.70710676908493],"scale":[2.53999996185303,2.53999996185303,2.53999996185303]}]}